#!OML:ASF X:\für Bonn\!DataBase\2005_08_11_Bastian_Final\c3d\Bastian.ASF
:FULLY-SPECIFIED
:DEGREES
136
root -2.17019 17.418 6.62304 154.569 -11.0505 -170.881
lowerback 24.5021 -6.09966 4.28761
upperback 11.748 -10.6471 5.50094
thorax 0.121162 -6.92609 6.0448
lowerneck -11.4252 -3.21225 -3.98151
upperneck -5.59343 -3.1435 6.57789
head 0.370797 -1.16269 2.6782
rclavicle 1.15891e-013 -1.75726e-013
rhumerus -33.1983 28.5537 -86.1395
rradius 51.96
rwrist -19.666
rhand -37.2241 13.2091
rfingers 7.12502
rthumb -10.2908 -16.5192
lclavicle 1.15891e-013 -1.75726e-013
lhumerus 37.2068 -26.9972 73.6577
lradius 98.2329
lwrist -22.3517
lhand -60.5289 -6.91873
lfingers 7.12502
lthumb -32.6552 20.1536
rfemur -33.0688 -2.23705 25.5865
rtibia 98.0378
rfoot 5.44324 -14.8872
rtoes -14.1882
lfemur 14.9662 -2.74584 -15.0695
ltibia 20.8904
lfoot -6.52976 -1.41933
ltoes 11.1253
137
root -2.16484 17.423 6.59636 155.066 -10.7585 -171.007
lowerback 23.7337 -5.99794 4.37959
upperback 11.4267 -10.3295 5.42919
thorax 0.0574704 -6.66842 5.75908
lowerneck -11.0021 -3.32706 -4.13632
upperneck -5.40554 -3.33965 6.63632
head 0.37568 -1.27992 2.72031
rclavicle 7.71285e-014 -1.01778e-013
rhumerus -33.6643 28.0467 -86.306
rradius 52.2434
rwrist -19.5775
rhand -37.22 13.3707
rfingers 7.12502
rthumb -10.2869 -16.3577
lclavicle 7.71285e-014 -1.01778e-013
lhumerus 35.8797 -27.9991 73.7679
lradius 97.0714
lwrist -22.2389
lhand -60.1446 -6.10964
lfingers 7.12502
lthumb -32.2895 21.0378
rfemur -31.2343 -1.5637 25.4392
rtibia 95.5662
rfoot 5.29982 -15.4967
rtoes -13.6205
lfemur 14.5164 -2.56823 -15.0472
ltibia 21.0645
lfoot -6.72701 -1.35326
ltoes 11.171
138
root -2.15946 17.4291 6.56991 155.555 -10.4802 -171.135
lowerback 22.9874 -5.90313 4.4662
upperback 11.1012 -10.0287 5.35226
thorax -0.0112701 -6.42328 5.48203
lowerneck -10.5803 -3.4287 -4.27118
upperneck -5.18999 -3.52399 6.67418
head 0.388124 -1.39231 2.75271
rclavicle -6.95746e-015 7.95139e-016
rhumerus -34.0868 27.5526 -86.47
rradius 52.501
rwrist -19.475
rhand -37.2018 13.5767
rfingers 7.12502
rthumb -10.2693 -16.1526
lclavicle -6.95746e-015 7.95139e-016
lhumerus 34.5549 -29.0631 73.767
lradius 95.9995
lwrist -21.9009
lhand -59.664 -5.22439
lfingers 7.12502
lthumb -31.8319 22.0151
rfemur -29.4602 -0.90493 25.3165
rtibia 93.0986
rfoot 5.04979 -16.0736
rtoes -12.9015
lfemur 14.1002 -2.43446 -15.0516
ltibia 21.2013
lfoot -6.924 -1.25145
ltoes 11.3487
139
root -2.15352 17.4357 6.54199 156.047 -10.1998 -171.242
lowerback 22.2302 -5.80095 4.55296
upperback 10.7678 -9.72688 5.295
thorax -0.0709471 -6.18241 5.2281
lowerneck -10.0841 -3.5254 -4.46552
upperneck -5.03466 -3.69372 6.74968
head 0.370229 -1.49685 2.81101
rclavicle 5.92378e-014 -5.40694e-014
rhumerus -34.4816 27.0129 -86.6166
rradius 52.7197
rwrist -19.3404
rhand -37.175 13.8851
rfingers 7.12502
rthumb -10.2435 -15.8454
lclavicle 5.92378e-014 -5.40694e-014
lhumerus 33.2046 -30.2094 73.7756
lradius 94.9506
lwrist -21.3635
lhand -59.1057 -4.69555
lfingers 7.12502
lthumb -31.3001 22.6483
rfemur -27.7576 -0.25381 25.242
rtibia 90.6264
rfoot 4.68705 -16.5494
rtoes -11.9549
lfemur 13.6716 -2.24053 -15.0097
ltibia 21.3421
lfoot -7.09297 -1.20608
ltoes 11.3177
140
root -2.14623 17.44 6.51219 156.556 -9.93875 -171.365
lowerback 21.4431 -5.69911 4.59253
upperback 10.4422 -9.44735 5.24226
thorax -0.090602 -5.95927 5.00684
lowerneck -9.63929 -3.61229 -4.64418
upperneck -4.85487 -3.85139 6.80548
head 0.367477 -1.5943 2.86033
rclavicle -7.0171e-014 4.6118e-014
rhumerus -34.8556 26.5647 -86.7445
rradius 52.9989
rwrist -19.2336
rhand -37.1592 14.1594
rfingers 7.12502
rthumb -10.2282 -15.5719
lclavicle -7.0171e-014 4.6118e-014
lhumerus 31.8007 -31.3834 73.8
lradius 93.9315
lwrist -20.6951
lhand -58.558 -4.46919
lfingers 7.12502
lthumb -30.778 22.9744
rfemur -26.1232 0.349543 25.1827
rtibia 88.1649
rfoot 4.26642 -16.8227
rtoes -11.2493
lfemur 13.1945 -2.10002 -15.003
ltibia 21.5546
lfoot -7.31354 -1.11931
ltoes 11.4682
